<svg xmlns="http://www.w3.org/2000/svg" width="1024" height="1024" viewBox="0 0 512 512"><path fill="#fcfcfc" d="M0 0h512v512H0V0Z"/><path fill="#010203" d="m249 92 1 1 5.13.19c12.18.94 22.33 6.53 31.87 13.81 6.47 4.92 12.42 8.87 20 12l2 2-6 2c1 4.03 2.45 6.93 4.44 10.56l1.87 3.44c1.67 3.05 1.67 3.05 3.69 6l-3 1 .84 2.6c1.84 5.8 3.47 11.32 4.16 17.4l1 1c.07 2.52.08 5.04.06 7.56l-.02 4.2L316 180l-2.9.3c-4.29.96-4.32 2.9-6.1 6.7-4 0-4 0-6.94-2-3.15-2.46-3.15-2.46-8.06-2-2.53 2.81-2.53 2.81-4.81 6.38-4.1 5.6-6.12 7.74-13.19 8.62-7.12 3.04-11.2 5.98-16 12-5.16 3.1-8.13 3.56-14 4v2c-13.27.9-17.34-3.17-25-14-.05 2.54-.1 5.08-.13 7.63l-.07 4.28c.19 3.86.95 6.5 2.2 10.09 0 5.21-.56 8.16-2 13a110.25 110.25 0 0 0-1.31 15.19c-.6 11.79-2.29 23.8-6.69 34.81-.38 2-.72 4-1 6 7.8 1.5 15.58 2.97 23.44 4.13C239 298 239 298 240 299c13.38 2.88 26.5 4.69 39.94 1.5 13.37-2.96 21.09-4.48 31.37 5.94L319 315c1.93 1.7 3.9 3.35 5.94 4.94 5.1 4 9.52 8.44 14.06 13.06l2 1c-1.45 4.35-3.82 4.34-8 6a715.31 715.31 0 0 0-8 4l-4.44 2.19c-3.3 1.45-3.3 1.45-4.56 2.81l-7 1-1 1c-2.8.45-5.62.84-8.44 1.19l-4.68.6C291 353 291 353 289 351c-3.95-1.4-3.95-1.4-8-2-2.37 2.95-2.37 2.95-2 7l4.2.18c5.14.23 10.27.5 15.4.77 2.22.12 4.45.22 6.67.32 3.2.13 6.38.3 9.57.49l5.82.28c4.34.96 4.34.96 5.3 3.96l.04 3c2.77 1.33 2.77 1.33 6.25 1.75l3.86.66c1.28.2 2.57.4 3.89.59l3.33.59a191.08 191.08 0 0 0 20.23 2.13c4.28.35 8.46 1.03 12.69 1.78 3.96.59 3.96.59 8.81.69 13.2.6 19.34 2.86 27.94 12.81 3.95 3.5 7.9 6.93 12 10.25 3 2.75 3 2.75 3 5.75l-5.38.25c-7.1.6-13.1 2.6-19.23 6.35-10.94 6.68-21.09 4.64-33.37 2.94a279.36 279.36 0 0 0-26.14-2.1l-3.2-.13A4595 4595 0 0 0 333 409v4h-26v2l-2.95.26-13.36 1.18-4.64.4-8.98.81c-2.47.21-4.95.4-7.44.54-5.48.33-8.93.9-13.13 4.5l-3 2.44c-1.15.95-2.3 1.9-3.5 2.87-4.02 3.01-8.07 5.99-12.13 8.95a351.16 351.16 0 0 0-10.03 7.54c-5.45 4.2-8.16 5.2-14.84 3.51-2.06-.33-4.12-.64-6.19-.94l-3.34-.52c-2.37-.37-4.75-.73-7.13-1.08-9.12-1.35-9.12-1.35-11.34-2.46a209.7 209.7 0 0 0-6.38-.88c-7.78-1-15.54-2.15-23.3-3.33-7.4-1.1-14.82-2.12-22.23-3.14C129 435 129 435 127 434c-3.33-.51-6.66-.99-10-1.44a241.7 241.7 0 0 1-15.9-2.56c-6.95-1.36-13.94-2.13-20.97-2.94-8.03-.96-8.03-.96-9.13-2.06-3.43-.5-6.87-.95-10.31-1.38C41.39 421.2 22.19 418.1 3 415c0-3.77 4.67-5.48 7.5-7.44l4.7-3.26L20 401l4.34-3 8.06-5.53a677.47 677.47 0 0 0 17.6-12.4c3-2.07 3-2.07 5-2.07 2.95 4.83 5.8 9.6 8.38 14.63 6.13 5.7 11.7 5.5 19.62 3.37 7.54-3.87 14.33-8.94 21.13-13.95 3.68-2.63 7.48-5.01 11.3-7.4a187.1 187.1 0 0 0 10.94-7.71l4.03-2.98c6.53-4.99 6.53-4.99 8.41-12.33L138 349a46.97 46.97 0 0 0-15.31 3.88A134.09 134.09 0 0 1 104 359l-1 1c-6.82 0-9.23-1.6-15-5l-4-1.69C81 352 81 352 80 350c4-2 8.95-1.87 13.38-2.38 8.43-1 16.42-2.35 24.62-4.62 2.08-.37 4.16-.73 6.25-1.06L129 341v-2a185.12 185.12 0 0 0-13.11-3.79c-2.65-.68-5.27-1.44-7.89-2.21v-2c2.66-1 5.32-2 8-2.94 14.1-4.43 14.1-4.43 25-13.06l-3.8.14c-9.38.2-16.71.28-25.2-4.14l-3.26-1.46c-6.39-2.92-6.39-2.92-8.74-4.54 0-5.03.99-5.35 4.69-8.5l2.63-2.28c1.8-1.49 3.61-2.95 5.45-4.38 2.3-1.65 2.3-1.65 3.23-3.84l-4-2a141.3 141.3 0 0 1-5.13-3.88l-2.63-2.05C102 276 102 276 100 272l4.31-3 2.76-1.95a291.6 291.6 0 0 1 5.83-3.98c6.3-4.3 10.17-8.37 14.1-15.07 2.13-3.63 2.13-3.63 4-6 4.7 1.18 7.96 3.37 12 6l.75-3.56c1.03-4.48 2.1-8.93 3.25-13.38l1-3.9c1-3.16 1-3.16 3-5.16.03 5.81.05 11.62.06 17.44l.03 4.97v4.84l.02 4.42c-.15 5.98-.43 11.52-2.55 17.14-2 5.37-2.72 10.53-3.56 16.19l2.63.08c15.23.66 30.28 2.86 45.37 4.92l-.18-2.49a1075.6 1075.6 0 0 1-2.4-64.78c-.03-2.86-.08-5.73-.14-8.59-.08-4.07-.11-8.14-.13-12.2l-.1-3.74c.02-6.08.1-8.49 4.88-12.5C199 186 199 186 201 186a230.8 230.8 0 0 0-7.75-22.31C192 160 192 160 193 157l3.06-1.5c10.18-6.46 15.73-19.02 18.94-30.25 1.5-5.2 3.33-8.22 7-12.25l1.69-4.63c3.08-5.83 6.1-6.58 12.31-8.37h4c1.12-2.85 1.12-2.85 2-6 3-3 3-3 7-2Z"/><path fill="#dd3a52" d="m249 92 1 1 5.13.19c12.18.94 22.33 6.53 31.87 13.81 6.47 4.92 12.42 8.87 20 12l2 2-6 2c1 4.03 2.45 6.93 4.44 10.56l1.87 3.44c1.67 3.05 1.67 3.05 3.69 6l-3 1 .84 2.6c1.84 5.8 3.47 11.32 4.16 17.4l1 1c.07 2.52.08 5.04.06 7.56l-.02 4.2L316 180l-2.9.3c-4.29.96-4.32 2.9-6.1 6.7-4 0-4 0-6.94-2-3.15-2.46-3.15-2.46-8.06-2-2.53 2.81-2.53 2.81-4.81 6.38-4.1 5.6-6.12 7.74-13.19 8.62-7.12 3.04-11.2 5.98-16 12-5.16 3.1-8.13 3.56-14 4v2c-13.27.9-17.34-3.17-25-14-.05 2.54-.1 5.08-.13 7.63l-.07 4.28c.19 3.86.95 6.5 2.2 10.09 0 5.21-.56 8.16-2 13a110.25 110.25 0 0 0-1.31 15.19c-.6 11.79-2.29 23.8-6.69 34.81-.38 2-.72 4-1 6 7.8 1.5 15.58 2.97 23.44 4.13C239 298 239 298 240 299c13.38 2.88 26.5 4.69 39.94 1.5 13.37-2.96 21.09-4.48 31.37 5.94L319 315c1.93 1.7 3.9 3.35 5.94 4.94 5.1 4 9.52 8.44 14.06 13.06l2 1c-1.45 4.35-3.82 4.34-8 6a715.31 715.31 0 0 0-8 4l-4.44 2.19c-3.3 1.45-3.3 1.45-4.56 2.81l-7 1-1 1c-15.2 3.66-15.2 3.66-20.88-1.56l-1.73-2.53C277.23 336.98 257.02 323 244 323l-2.35 2.88c-3.27 3.85-5.14 4.2-10.06 5.06l-4.41.82-4.68.8-9.53 1.77-4.66.85c-7.06 1.34-14 3.04-20.97 4.78-4.76 1.14-9.54 2.1-14.34 3.04-2.36.5-4.71 1.03-7.06 1.56l-3.35.76c-2.5.42-2.5.42-3.59 1.68-9.51.49-9.51.49-13-3 0-3.8 5.21-5.96 8-8 1.84-1.51 3.67-3.03 5.5-4.56 4.3-3.55 8.68-6.62 13.5-9.44l-2.81-4.38c-5.48-9.2-6.63-18.1-7.19-28.62a7357.4 7357.4 0 0 1 15.67 1.2c4.86.38 9.55.84 14.33 1.8l-.18-2.49a1075.6 1075.6 0 0 1-2.4-64.78c-.03-2.86-.08-5.73-.14-8.59-.08-4.07-.11-8.14-.13-12.2l-.1-3.74c.02-6.08.1-8.49 4.88-12.5C199 186 199 186 201 186a230.8 230.8 0 0 0-7.75-22.31C192 160 192 160 193 157l3.06-1.5c10.18-6.46 15.73-19.02 18.94-30.25 1.5-5.2 3.33-8.22 7-12.25l1.69-4.63c3.08-5.83 6.1-6.58 12.31-8.37h4c1.12-2.85 1.12-2.85 2-6 3-3 3-3 7-2Z"/><path fill="#02daed" d="M190 155a52.85 52.85 0 0 1 5.5 12.38c1.24 3.89 2.5 7.61 4.16 11.35C201 182 201 182 201 186c-7.05 5-7.05 5-10 5a24956.66 24956.66 0 0 0 .5 34.57c.2 14.85.46 29.66 1.3 44.48.24 4.74.3 9.46.26 14.2l-.02 4.52L193 292a697.16 697.16 0 0 1-48-5c.42-7.43 1.26-13.05 4-20 1.42-8.8 1.11-17.68 1.06-26.56l-.01-4.8L150 224l-.81 3.09-1.08 4.07-1.06 4.03A192.4 192.4 0 0 1 143 248c-5-2-5-2-9-5-3.23-.42-3.23-.42-4.66 2.53l-1.84 3.4c-6.41 10.8-15.98 16.65-26.5 23.07 2.82 5.64 7.33 8 12.42 11.56L116 286c-2.36 4.73-5.06 6.78-9.13 10.13-4.77 3.17-4.77 3.17-6.87 7.87 2.12 1.23 4.3 2.36 6.5 3.44l3.66 1.8c7.52 3.44 13.5 5.16 21.84 5.45l5.13.2 3.87.11c-2.67 8-17.56 11.52-25 14l-3.56 1.25C110 331 110 331 108 331v2c2.67.5 5.34 1 8.03 1.43 4.57.88 8.81 2.49 12.97 4.57v2c-3.66 1.1-7.3 2.08-11 3l-5.19 1.5c-10.05 2.53-20.53 3.33-30.81 4.5v2a253.4 253.4 0 0 0 9 4l3.19 1.75c11 4.89 28.36-5.57 38.81-9.75h5c2 4 2 4 1 8-7.94 11.11-20.75 18.1-32.18 25.21-7.04 4.46-14.14 9-20.78 14.04-5.92 3.4-12.48 3.06-19.04 1.75-3.78-2.75-5.78-5.94-8-10l-2.7-3.84c-3.2-7.2-2.69-13.45-2.36-21.22.51-12.82-.88-23.75-4.94-35.94a368.79 368.79 0 0 0-23.38 12.44C17.23 343.24 8.75 347.83 0 352c-1.3-7.62-1.3-7.62 0-12 4.52-3.64 9.72-5.66 15-8 2.41-1.34 4.81-2.72 7.19-4.13 4.17-2.4 8.36-4.69 12.68-6.8l2.9-1.48c2.44-1.2 4.93-2.32 7.43-3.4 10-4.74 13.57-8.1 14.51-19.32L60 293c.66-2.34 1.32-4.67 2-7 .33-2.62.62-5.25.88-7.88 1.84-15.4 10.68-26.69 19.84-38.7 3.42-4.61 6.64-9.33 9.84-14.1 4.64-6.86 9.5-13.25 14.96-19.46 2.3-2.65 4.42-5.37 6.54-8.17 4.05-5.1 8.73-8.84 13.94-12.69a2863430521.94 2863430521.94 0 0 0 8.87-6.66c3.19-2.38 6.35-4.8 9.5-7.22 1.1-.81 2.2-1.63 3.32-2.48 3.38-2.6 3.38-2.6 6.44-5.72 9.97-9.35 20.68-10.3 33.87-7.92Z"/><path fill="#8f1c55" d="M278 356c6.68.28 13.35.6 20.03.95 2.27.12 4.54.22 6.81.32 3.27.13 6.52.3 9.78.49l5.95.28c4.43.96 4.43.96 5.41 3.96l.02 3c2.77 1.33 2.77 1.33 6.25 1.75l3.86.66c1.28.2 2.57.4 3.89.59l3.33.59a191.08 191.08 0 0 0 20.23 2.13c4.28.35 8.46 1.03 12.69 1.78 3.96.59 3.96.59 8.81.69 13.2.6 19.34 2.86 27.94 12.81 3.95 3.5 7.9 6.93 12 10.25 3 2.75 3 2.75 3 5.75l-5.38.25c-7.1.6-13.1 2.6-19.23 6.35-10.94 6.68-21.09 4.64-33.37 2.94a279.36 279.36 0 0 0-26.14-2.1l-3.2-.13A4595 4595 0 0 0 333 409v4h-26v2l-2.95.26-13.36 1.18-4.64.4-8.97.8-7.53.65c-5.36.42-5.36.42-10.55 1.71-3.27.04-6.54-.02-9.81-.13l-5.33-.13c-5.26-.8-7.3-1.87-10.86-5.74v-2l2.81-.06c4.61-1.36 4.5-3.53 6.19-7.94l1.94-4.78 2.06-5.16 2.06-5.15c1.98-4.81 1.98-4.81 3.34-9.48 1.6-3.43 1.6-3.43 7.22-4.3 7.98.54 13.17 4.17 18.2 10.3L279 388c5.87-1.47 6.52-4.7 9-10 0-6.3-.02-6.72-3.88-11-3.2-3.59-4.7-6.41-6.12-11Z"/><path fill="#cf86a2" d="M213 275c.2 4.89-.13 7.31-2 12-.38 2-.72 4-1 6 7.8 1.5 15.58 2.97 23.44 4.13C239 298 239 298 240 299c13.38 2.88 26.5 4.69 39.94 1.5 13.37-2.96 21.09-4.48 31.37 5.94L319 315c1.93 1.7 3.9 3.35 5.94 4.94 5.1 4 9.52 8.44 14.06 13.06l2 1c-1.45 4.35-3.82 4.34-8 6a715.31 715.31 0 0 0-8 4l-4.44 2.19c-3.3 1.45-3.3 1.45-4.56 2.81l-7 1-1 1c-15.2 3.66-15.2 3.66-20.88-1.56l-1.73-2.53C277.23 336.98 257.02 323 244 323l-2.35 2.88c-3.27 3.85-5.14 4.2-10.06 5.06l-4.41.82-4.68.8-9.53 1.77-4.66.85c-7.06 1.34-14 3.04-20.97 4.78-4.76 1.14-9.54 2.1-14.34 3.04-2.36.5-4.71 1.03-7.06 1.56l-3.35.76c-2.5.42-2.5.42-3.59 1.68-9.51.49-9.51.49-13-3 0-3.8 5.21-5.96 8-8 1.84-1.51 3.67-3.03 5.5-4.56 4.3-3.55 8.68-6.62 13.5-9.44l-2.81-4.38c-5.48-9.2-6.63-18.1-7.19-28.62a987.6 987.6 0 0 1 43 4l-.25-4.56c.26-5.56 1.04-8 4.25-12.44 2-1 2-1 3-1Z"/><path fill="#010203" d="M150 222h1c.03 5.81.05 11.62.06 17.44l.03 4.97v4.84l.02 4.42c-.15 5.98-.43 11.52-2.55 17.14-2 5.37-2.72 10.53-3.56 16.19l3.65-.03 4.72.1 4.72.03c3.91.9 3.91.9 5.37 4.04L164 295l.64 3.36.61 3.39c1.44 6.98 4.17 12.12 7.75 18.25 0 4.98-3.97 5.55-7.84 7.9-4.33 2.88-7.94 6.34-11.65 9.96C151 340 151 340 146 342v2l3 1v3h4c-1.2 4.8-2.1 5.1-6.19 7.56l-3 1.82A108.8 108.8 0 0 1 135 362c2-4 2-4 4-7-.32-3.14-.32-3.14-1-6a46.97 46.97 0 0 0-15.31 3.88A134.09 134.09 0 0 1 104 359l-1 1c-6.82 0-9.23-1.6-15-5l-4-1.69C81 352 81 352 80 350c4-2 8.95-1.87 13.38-2.38 8.43-1 16.42-2.35 24.62-4.62 2.08-.37 4.16-.73 6.25-1.06L129 341v-2a185.12 185.12 0 0 0-13.11-3.79c-2.65-.68-5.27-1.44-7.89-2.21v-2c2.66-1 5.32-2 8-2.94 14.1-4.43 14.1-4.43 25-13.06l-3.8.14c-9.38.2-16.71.28-25.2-4.14l-3.26-1.46c-6.39-2.92-6.39-2.92-8.74-4.54 0-5.03.99-5.35 4.69-8.5l2.63-2.28c1.8-1.49 3.61-2.95 5.45-4.38 2.3-1.65 2.3-1.65 3.23-3.84l-4-2a141.3 141.3 0 0 1-5.13-3.88l-2.63-2.05C102 276 102 276 100 272l4.31-3 2.76-1.95a291.6 291.6 0 0 1 5.83-3.98c6.3-4.3 10.17-8.37 14.1-15.07 2.13-3.63 2.13-3.63 4-6 4.7 1.18 7.96 3.37 12 6l.75-3.56c4.23-18.4 4.23-18.4 6.25-22.44Z"/><path fill="#8f1c55" d="m249 322-2 2c.28 3.34.63 6.67 1 10 .1 4.05.14 8.08.13 12.13v3.07c0 8.62-.52 17.2-1.13 25.8l-4.9.04c-6.1.06-12.2.14-18.3.22l-7.86.09c-25.4-1.55-25.4-1.55-47.94 4.65l-3.94.38c-5.33.65-9.93 2.03-15.06 3.62-2.48.64-4.96 1.26-7.44 1.88-15.4 3.65-15.4 3.65-30.56 8.12 1-4.96 2.38-7.7 4.94-12a83.17 83.17 0 0 0 6.06-12c2.64-2.39 2.64-2.39 5.81-4.69l3.15-2.32C134 361 134 361 139 359c8.54-4.1 8.54-4.1 14-11l-4-1 4.56-.38A61.61 61.61 0 0 0 166 344c3.78-1.14 7.48-2.1 11.36-2.86 7.9-1.6 15.73-3.52 23.58-5.4a332.71 332.71 0 0 1 23.2-4.72c2.23-.38 4.46-.74 6.7-1.07 8.11-1.38 10.82-7.95 18.16-7.95Z"/><path fill="#65027d" d="M251 95c17.61-1.43 29.69 6.77 43.19 17.25 4.08 2.95 8.18 4.79 12.81 6.75l2 2-6 2c1 4.03 2.45 6.93 4.44 10.56l1.87 3.44c1.67 3.05 1.67 3.05 3.69 6l-3 1 .84 2.6c1.84 5.8 3.47 11.32 4.16 17.4l1 1c.07 2.52.08 5.04.06 7.56l-.02 4.2L316 180l-2.9.3c-4.29.96-4.32 2.9-6.1 6.7-4 0-4 0-6.69-1.94-3.23-2.37-3.23-2.37-7.31-2.31-8.54-1.28-15.37-6.47-22.59-11-6.63-3.4-12.69-1.73-18.91 1.81L248 176h-3c-2-4-1.89-8.9-2.4-13.3-.7-5.83-.7-5.83-4.6-9.7-6.82-.82-6.82-.82-12.5 2.25-2.86 5.24-4.3 9.9-5.5 15.75-4-1-4-1-7-5-.6-11.46.61-16.57 10-24 10.59-4.23 33.28-3.48 43 3 1.99.39 3.99.73 6 1-4.58-18.28-10.55-35.17-21-51Z"/><path fill="#733deb" d="m201 184 1 3 4 1c2.5 2 2.5 2 5.13 4.44l2.63 2.43c4.75 4.51 4.54 6.68 4.74 13.38.18 5.74.61 10.36 2.5 15.75 0 5.21-.56 8.16-2 13a117.52 117.52 0 0 0-1.38 15.63c-.41 7.83-1.32 14.86-3.62 22.37l-4 2c-3.39 5.02-3.6 10.06-4 16-11.88.13-11.88.13-13-1-2.53-22.18-2.34-44.95-2.57-67.26a895.7 895.7 0 0 0-.15-8.6c-.08-4.07-.11-8.14-.13-12.2l-.1-3.74c.02-6.08.1-8.49 4.88-12.5C199 186 199 186 201 186v-2Z"/><path fill="#fb0198" d="m249 92 1 1c2.02.23 4.04.41 6.06.56L262 94v1l-10 1 3.19 4.31c9.43 13.54 14.04 29.6 16.81 45.69-6 0-6 0-9-2-23.95-5.03-23.95-5.03-45.64 3.13-3.06 3.73-3.25 6.41-3.67 11.18l-.43 4.37L213 166c-3.08-1.54-2.59-3.77-3-7h-2l-1-5-8 1 1.63-2.44L203 149l3-4.38c4.07-6.26 6.9-12.08 8.94-19.25 1.53-5.24 3.36-8.3 7.06-12.37l1.69-4.63c3.08-5.83 6.1-6.58 12.31-8.37h4c1.12-2.85 1.12-2.85 2-6 3-3 3-3 7-2Z"/><path fill="#dd3a52" d="M163 289a3395.93 3395.93 0 0 1 15.23 1.11c6.72.52 13.2 1.33 19.77 2.89v1l-11 1c5.09 9.11 13.62 11.84 23 15l2.78 1.07c4.08 1.18 7.88 1.36 12.12 1.56l5.14.26 5.34.24 5.4.26L254 314c-6.3 6.3-14.25 8.03-23 9l-1 1-7.65 1.34c-4.88.96-9.63 2.29-14.42 3.6a832.09 832.09 0 0 1-37 8.91c-4.02.94-7.96 2-11.93 3.15-2.3.56-4.62 1.1-6.94 1.63l-3.46.78-2.6.59c0-3.8 5.21-5.96 8-8 1.84-1.51 3.67-3.03 5.5-4.56 4.3-3.55 8.68-6.62 13.5-9.44l-2.81-4.38c-5.48-9.2-6.63-18.1-7.19-28.62Z"/><path fill="#65027d" d="M246 323c15.07 1.95 34 15.01 43 27h-9c-2.29 4.58-1.1 7.83 1.19 12 2.63 3.98 2.63 3.98 5.69 6.94 3.09 4.45 2.45 6.9 1.12 12.06-2.81 4.63-2.81 4.63-6 8-4-1-4-1-6.81-4.31-6.7-7.74-12.47-8.08-22.19-8.69-3.34-.49-3.34-.49-6-2-.67-3.72-.67-3.72-.55-8.56l.07-5.3.17-5.58.2-10.8.1-5.13c.01-5.3-.34-10.38-.99-15.63Z"/><path fill="#fcfcfc" d="M258.63 375.13c10.55.73 17.74 7.62 22.37 16.87 1.06 9.98-3.22 14.22-10 21-10.38 5.8-20.2 7.21-32 6-6-3.62-6-3.62-6-7l2.81-.06c4.61-1.36 4.5-3.53 6.19-7.94l1.94-4.78 2.06-5.16 2.06-5.15c1.98-4.81 1.98-4.81 3.34-9.48 1.6-3.43 1.6-3.43 7.22-4.3Z"/><path fill="#dd3a52" d="M286.48 325.05c6.32 2.23 11.17 2.35 17.77 2.07 12.18-.4 12.18-.4 17.75 1.88 3.66.7 7.33 1.37 11 2v-2c4 2 4 2 8 5-1.45 4.35-3.82 4.34-8 6a715.31 715.31 0 0 0-8 4l-4.44 2.19c-3.3 1.45-3.3 1.45-4.56 2.81l-7 1-1 1c-15.2 3.66-15.2 3.66-20.88-1.56l-1.67-2.5c-3.51-4.22-7.92-7-12.45-10l-2.65-1.77A983.7 983.7 0 0 0 264 331c7.34-7.34 12.92-10.33 22.48-5.95Z"/><path fill="#65027d" d="M202 187c4.42 1.1 5.85 2.38 9.13 5.44l2.63 2.43c4.75 4.51 4.54 6.68 4.74 13.38.18 5.74.61 10.36 2.5 15.75 0 5.21-.56 8.16-2 13a117.52 117.52 0 0 0-1.38 15.63c-.41 7.83-1.32 14.86-3.62 22.37l-4 2a200.79 200.79 0 0 0-3 6h-2l-.15-2.9-.72-13.23-.24-4.55c-.58-17.23-.58-17.23-5.89-33.32l-1-4 4 2v2h10l-.49-2.79c-.87-7.16-.69-14.43-.74-21.64-.87-6.29-2.72-8.82-6.77-13.57l-1-4Z"/><path fill="#1e2ba1" d="M57 310c-1.58 13.23-1.58 13.23-7 16-1.49.6-1.49.6-3 1.23a190.8 190.8 0 0 0-14.69 7.52l-2.96 1.62c-5.1 2.8-10.16 5.66-15.16 8.63A120.44 120.44 0 0 1 0 352c-1.3-7.62-1.3-7.62 0-12 4.52-3.64 9.72-5.66 15-8 2.41-1.34 4.81-2.72 7.19-4.13a255.22 255.22 0 0 1 15.7-8.28c4.87-2.5 9.57-5.28 14.27-8.05C55 310 55 310 57 310Z"/><path fill="#65027d" d="M213 335c-1.65 4.94-6.4 5.16-11 7v2a294.25 294.25 0 0 1-7 3l-2 2-3.65 1.33c-5.78 2.22-10.6 5.52-15.76 8.9-7.83 3.86-12.7-1.1-19.59-5.23l-4-2 2-1 1-3-4-1 4.56-.38A61.61 61.61 0 0 0 166 344c3.85-1.16 7.62-2.12 11.57-2.9 7.17-1.45 14.22-3.28 21.3-5.08A57.5 57.5 0 0 1 213 335Z"/><path fill="#fcfcfc" d="M244 321c-2.85 7.14-4.97 8.3-12.21 9.65l-4.43.85-4.74.88c-3.19.6-6.38 1.22-9.58 1.84l-4.7.91a460.34 460.34 0 0 0-21 4.83c-4.76 1.14-9.54 2.1-14.34 3.04-2.36.5-4.71 1.03-7.06 1.56l-3.35.76c-2.5.42-2.5.42-3.59 1.68-4.94.31-4.94.31-10 0l-2-4c7.36-1.86 14.73-3.64 22.13-5.38a444.5 444.5 0 0 0 20-5.18 292.47 292.47 0 0 1 23.86-5.55c4.25-.83 4.25-.83 9.01-2.89 2.66-.35 5.33-.69 8-1l1-1c4.46-.79 8.43-1 13-1Z"/><path fill="#dd3a52" d="M253 376c-1 5.03-2.53 9.44-4.31 14.25-.9 2.42-.9 2.42-1.8 4.9-6.38 16.4-6.38 16.4-11.08 17.79-6.74.1-10.2-3.33-14.81-7.94 4.03-8.07 21.9-29 32-29Z"/><path fill="#cf86a2" d="M182 325c3.33.38 6.66.72 10 1l1 1c2.68.24 5.37.41 8.06.56l4.48.26 3.46.18v1c-2.2.48-4.41.9-6.63 1.31a195.96 195.96 0 0 0-18.88 4.71c-4.77 1.34-9.6 2.33-14.45 3.33-3.4.73-6.7 1.68-10.04 2.65-4.33 1.03-8.66 2.02-13 3 0-3.8 5.21-5.96 8-8 1.84-1.51 3.67-3.03 5.5-4.56 12.79-10.38 12.79-10.38 22.5-6.44Z"/><path fill="#010203" d="M274 358c4.76 1.59 4.71 4.28 6 9 .24 4.68.18 9.32 0 14 3.02-.64 3.02-.64 6-2 .99-4.56.99-4.56 1-9 3.4 3.4 1.91 6.54 1 11-2.81 4.63-2.81 4.63-6 8-5.25-1.31-6.6-3.9-10-8l-4-3c1.07-5.36 2.97-9.94 5-15l1-5Z"/><path fill="#010203" d="M266 332c17.76 11.02 17.76 11.02 23 18h-9l-1 2c-4.72-1.57-5.04-5.57-7-10a396.05 396.05 0 0 0-6-8v-2Z"/><path fill="#65027d" d="M202 187c4.4 1.1 5.85 2.35 9.13 5.38l2.63 2.4c4.05 4.02 4.46 5.75 3.24 11.22-4.99-2.5-6.76-5.5-10-10l-2.88-3.31C202 190 202 190 202 187Z"/><path fill="#dd3a52" d="M213 275c.34 5.54-.69 9-3 14l-1 5c-4.56.31-4.56.31-9 0v-1h6l-.25-4.56c.26-5.56 1.04-8 4.25-12.44 2-1 2-1 3-1Z"/><path fill="#010203" d="M281 367c4.62 1.54 4.67 4.55 6 9-1 4-1 4-2 5h-5l-.06-6.44-.04-3.62c.1-2.94.1-2.94 1.1-3.94Z"/></svg>