<?xml version="1.0" standalone="no"?>
<!DOCTYPE svg PUBLIC "-//W3C//DTD SVG 20010904//EN"
 "http://www.w3.org/TR/2001/REC-SVG-20010904/DTD/svg10.dtd">
<svg version="1.0" xmlns="http://www.w3.org/2000/svg"
 width="1024.000000pt" height="768.000000pt" viewBox="0 0 1024.000000 768.000000"
 preserveAspectRatio="xMidYMid meet">
<metadata>
Created by potrace 1.16, written by Peter Selinger 2001-2019
</metadata>
<g transform="translate(0.000000,768.000000) scale(0.100000,-0.100000)"
fill="#000000" stroke="none">
<path d="M520 5623 l0 -2058 -30 -17 c-28 -16 -30 -21 -30 -78 0 -34 9 -108
20 -163 31 -153 99 -453 121 -532 26 -94 25 -105 -8 -106 l-28 -1 30 -7 c24
-5 31 -14 42 -50 7 -25 11 -46 9 -48 -3 -4 -488 -22 -593 -23 l-53 0 0 -71 0
-72 38 7 c20 3 147 8 282 11 135 3 268 8 297 11 l51 5 -9 31 c-8 31 -4 54 5
27 7 -21 66 -252 66 -260 0 -4 -46 -7 -102 -8 -396 -4 -628 -17 -628 -32 0 -6
8 -8 18 -5 9 2 127 7 262 11 135 3 293 8 352 11 105 4 108 4 113 -18 3 -13 28
-114 55 -226 28 -112 50 -209 50 -215 0 -9 -24 -14 -82 -15 -261 -7 -757 -38
-767 -47 -15 -15 25 -16 171 -2 90 9 242 19 338 22 96 3 214 8 261 11 l86 6
12 -44 c13 -49 101 -417 101 -423 0 -2 -21 -6 -47 -8 l-48 -3 46 -2 c33 -1 49
-7 53 -18 4 -9 5 -18 4 -19 -9 -8 -657 -56 -684 -51 -18 4 -91 33 -163 66 -72
32 -131 55 -131 51 0 -12 226 -121 250 -121 6 0 9 -3 8 -7 -6 -18 -14 -18 417
17 127 11 248 20 269 22 46 3 40 17 86 -190 40 -184 40 -183 130 -208 65 -19
76 -25 87 -52 7 -17 9 -33 5 -36 -4 -2 -29 0 -56 6 -30 6 -51 7 -57 1 -6 -6
19 -12 68 -17 43 -3 105 -15 138 -25 78 -25 240 -71 285 -81 19 -5 50 -13 69
-19 19 -6 46 -8 60 -6 21 4 22 4 7 -3 -15 -6 36 -23 192 -61 116 -29 219 -51
229 -49 10 2 -11 10 -47 17 -71 14 -116 29 -89 30 8 1 49 -8 90 -19 41 -12
151 -41 244 -65 94 -25 247 -65 340 -90 479 -129 811 -205 891 -205 53 0 255
29 384 55 211 42 807 142 1230 205 259 39 346 52 427 65 50 8 98 13 106 9 8
-3 18 -1 22 5 3 6 12 11 18 11 7 0 6 -4 -3 -10 -10 -7 5 -9 50 -5 36 2 310 7
610 10 412 5 598 11 760 25 118 10 339 24 490 31 151 6 280 15 285 19 13 10
124 18 400 30 121 5 299 15 395 21 164 11 184 11 315 -10 225 -35 522 -88 622
-111 23 -6 54 -10 70 -9 32 1 -337 76 -567 115 -85 14 -157 28 -159 30 -18 16
213 -18 644 -96 363 -65 506 -90 518 -90 4 0 7 42 6 94 l-1 95 -52 11 c-28 6
-89 20 -136 30 -440 95 -553 121 -618 141 -54 17 -146 24 -138 11 4 -7 2 -12
-4 -12 -8 0 -9 7 -5 17 38 87 95 411 95 536 0 35 1 36 33 31 185 -25 551 -80
666 -100 80 -13 148 -24 153 -24 4 0 8 13 8 28 l0 29 -112 17 c-171 27 -494
75 -573 86 -82 11 -177 29 -182 34 -2 2 -6 100 -9 217 -3 118 -9 266 -13 329
-4 63 -6 118 -5 121 2 3 36 2 76 -3 40 -4 219 -21 398 -38 179 -17 346 -33
373 -36 l47 -6 0 41 c0 23 -4 41 -8 41 -4 0 -111 9 -237 20 -202 17 -287 27
-425 45 -28 4 -31 3 -15 -5 16 -8 11 -9 -20 -6 -22 3 -75 8 -118 12 -68 6 -78
9 -82 28 -2 12 -13 118 -25 236 -11 118 -27 266 -36 329 -8 62 -13 115 -11
118 3 2 98 -3 213 -11 l209 -15 -165 4 c-207 4 -118 -9 170 -25 186 -10 301
-19 471 -35 l77 -7 1 86 2 86 -234 0 c-129 0 -349 3 -490 7 l-257 6 0 24 c0
13 -12 51 -26 86 -20 50 -24 72 -19 114 4 36 2 60 -8 80 -12 22 -47 202 -47
239 0 5 28 8 62 7 35 -1 261 -7 503 -13 242 -6 457 -13 478 -16 36 -6 37 -5
37 25 0 30 -1 31 -47 31 -27 0 -169 4 -318 10 -615 21 -715 22 -709 5 3 -8 2
-15 -3 -15 -13 0 -36 114 -73 355 -31 198 -65 378 -75 395 -3 5 9 11 27 13
l33 4 -33 1 c-29 2 -35 7 -52 48 -11 25 -20 48 -20 50 0 2 161 3 358 2 238 -1
322 -4 252 -9 -63 -4 -13 -5 125 -3 127 2 299 4 383 4 l152 0 0 650 c0 400 -4
650 -9 650 -60 0 -884 -107 -1006 -131 -139 -26 -152 -33 -159 -78 -22 -146
-68 -745 -61 -798 4 -33 -19 -53 -38 -34 -17 17 43 797 67 871 6 20 21 40 36
47 37 17 1045 153 1139 153 17 0 31 5 31 11 0 14 -12 13 -570 -57 -615 -77
-627 -80 -650 -140 -20 -50 -70 -638 -70 -804 1 -108 5 -117 70 -150 51 -27
18 -25 518 -21 214 2 328 -1 334 -7 6 -6 7 -19 3 -29 -6 -16 -8 -16 -16 4 -8
23 -11 23 -131 17 -68 -3 -125 -8 -127 -10 -2 -2 40 -4 93 -4 82 0 97 -2 93
-15 -8 -19 -1 -22 53 -26 43 -3 45 -2 51 26 l7 30 1 -35 c2 -81 9 -78 -177
-79 -92 0 -302 -4 -467 -7 l-300 -7 -17 30 c-9 16 -45 58 -81 94 -52 54 -76
71 -133 91 -104 39 -276 91 -504 153 -113 31 -262 74 -331 96 l-126 40 5 1370
c4 1026 2 1369 -7 1369 -13 0 -12 102 -11 -1557 0 -645 -2 -1173 -6 -1173 -21
0 -570 185 -619 209 -37 18 -121 82 -221 168 -129 112 -200 164 -242 179 -1 0
16 43 39 93 22 51 51 130 64 174 13 45 35 116 50 157 41 120 84 280 117 433
28 129 31 163 35 374 5 227 5 234 -21 323 -44 155 -112 268 -235 391 -111 111
-199 158 -321 173 -62 7 -163 -14 -192 -41 -17 -15 -23 -11 -19 11 3 17 -30
56 -60 72 -42 21 -47 11 -9 -16 37 -26 54 -64 40 -88 -8 -14 -9 -12 -10 12 0
20 -12 39 -42 67 -24 22 -49 39 -57 39 -8 0 4 -14 25 -31 22 -17 43 -38 48
-46 11 -20 -8 -86 -31 -104 -15 -13 -15 -12 0 17 9 18 12 36 7 44 -6 9 -11 2
-19 -25 -5 -21 -20 -49 -33 -63 -21 -23 -21 -25 -3 -18 13 4 16 4 10 -2 -5 -5
-48 -24 -95 -42 -159 -62 -172 -71 -67 -45 33 7 64 12 70 10 7 -2 47 -6 90 -9
42 -3 87 -10 98 -17 11 -6 23 -9 25 -6 12 12 -87 39 -146 39 l-65 1 45 14 c53
16 147 12 207 -10 84 -31 327 -217 318 -243 -2 -7 12 -27 31 -45 42 -41 45
-58 4 -27 -67 51 -93 68 -104 68 -12 0 20 -28 78 -70 20 -14 34 -32 33 -40 -1
-8 3 -14 10 -13 16 4 66 -63 58 -77 -4 -6 -1 -9 6 -8 14 3 106 -144 131 -209
22 -59 14 -54 -18 10 -15 28 -35 60 -46 71 -11 10 -17 24 -14 32 3 8 0 13 -6
11 -6 -1 -13 4 -16 12 -3 9 0 11 8 6 9 -5 11 -4 6 4 -4 6 -11 9 -15 6 -5 -2
-17 5 -27 16 -42 47 -189 142 -281 183 -135 60 -227 116 -271 166 -10 11 -12
11 -6 1 5 -9 3 -12 -5 -7 -6 4 -9 10 -7 14 2 4 -14 16 -36 27 -22 10 -35 21
-30 23 6 2 75 -29 154 -68 79 -39 136 -65 128 -56 -8 8 -46 31 -84 50 -38 20
-65 36 -60 36 5 0 -4 9 -21 20 -50 33 -205 71 -205 50 0 -6 16 -10 35 -10 19
0 35 -4 35 -10 0 -5 -7 -7 -15 -4 -35 14 -11 -8 35 -31 28 -14 50 -30 50 -35
0 -6 8 -14 18 -18 9 -4 62 -37 117 -73 55 -36 123 -78 152 -94 29 -15 51 -32
50 -38 -1 -5 4 -12 12 -15 9 -3 11 0 6 8 -6 9 -3 9 14 1 25 -14 28 -23 4 -14
-25 9 -17 2 55 -51 34 -25 62 -49 62 -52 0 -4 -10 1 -22 10 -13 8 -48 30 -78
47 -77 45 -186 116 -247 164 -127 97 -152 115 -156 108 -2 -5 -2 -2 -1 4 3 11
-43 43 -62 43 -3 0 10 -19 30 -42 44 -51 50 -58 62 -80 5 -9 46 -57 91 -106
79 -85 87 -91 200 -142 115 -53 173 -90 138 -90 -8 0 -15 6 -15 14 0 8 -12 17
-26 20 -14 4 -49 18 -77 31 -28 14 -56 25 -63 25 -26 0 -155 99 -203 155 -28
33 -53 59 -57 57 -8 -4 -35 48 -29 57 2 4 -2 8 -9 8 -11 0 -10 -8 3 -37 21
-46 54 -95 44 -65 -5 17 -3 17 18 -5 13 -13 24 -31 24 -40 0 -8 7 -15 15 -15
8 -1 14 -7 12 -14 -1 -7 2 -10 8 -6 5 3 10 0 10 -7 0 -14 62 -58 80 -58 6 0 8
-5 5 -10 -4 -6 -3 -10 2 -9 21 4 34 -2 27 -13 -4 -7 -3 -8 5 -4 12 8 141 -49
152 -66 4 -6 17 -7 30 -3 15 4 19 3 11 -3 -9 -6 2 -16 38 -36 69 -38 63 -43
-8 -7 -32 16 -67 31 -77 33 -11 1 -26 10 -33 18 -8 8 -11 9 -7 3 8 -17 10 -17
-75 13 -115 40 -182 78 -233 133 -52 56 -68 88 -60 120 3 12 1 27 -4 34 -16
20 -22 56 -10 60 8 2 7 6 -1 11 -7 4 -12 2 -12 -4 0 -6 -4 -9 -9 -6 -5 4 -4
-10 2 -29 6 -19 14 -35 19 -35 4 0 8 -10 8 -22 0 -19 -2 -20 -11 -8 -20 29 2
-33 29 -80 25 -45 98 -120 116 -120 5 0 19 -9 31 -20 12 -11 31 -22 43 -25 30
-5 62 -24 62 -36 0 -6 4 -7 10 -4 12 8 90 -15 90 -27 0 -4 14 -8 31 -8 16 0
28 -4 24 -9 -3 -6 13 -11 36 -13 30 -2 43 -8 45 -20 2 -14 -6 -13 -65 7 -36
13 -79 31 -96 39 -38 20 -56 20 -31 1 29 -22 9 -18 -22 4 -15 10 -45 28 -67
40 -22 12 -55 33 -74 46 -36 26 -70 35 -37 10 11 -8 16 -18 12 -22 -4 -5 -20
8 -36 27 -48 60 -92 106 -81 85 5 -11 35 -47 66 -80 40 -43 58 -56 64 -47 6
10 19 4 55 -23 26 -20 63 -43 82 -52 19 -9 34 -23 34 -31 0 -7 13 -19 30 -25
16 -6 30 -15 30 -19 0 -4 5 -8 11 -8 5 0 7 5 3 12 -5 8 -2 9 10 5 10 -4 21 -7
24 -7 4 0 0 -5 -8 -10 -11 -7 -6 -10 20 -11 19 0 44 -4 55 -9 18 -8 16 -9 -10
-11 -44 -4 -87 0 -99 10 -33 25 -129 72 -117 58 7 -9 10 -17 5 -17 -5 0 -31
24 -57 52 -46 50 -47 51 -14 8 48 -63 55 -79 22 -50 -28 25 -28 25 -13 2 9
-13 27 -31 40 -40 21 -15 22 -15 9 1 -7 9 -9 17 -4 17 13 0 55 -45 48 -52 -3
-3 3 -11 12 -19 16 -13 17 -12 4 4 -18 22 -4 22 36 -2 17 -11 49 -23 70 -26
21 -4 47 -9 58 -12 18 -5 19 -4 5 12 -14 17 -14 17 8 6 13 -7 32 -9 45 -5 21
7 20 8 -8 15 l-30 7 33 1 c18 0 40 -5 47 -13 12 -12 11 -14 -8 -14 -34 0 -127
-30 -97 -31 14 -1 32 -6 40 -11 30 -19 -68 -10 -122 11 -114 45 -203 114 -218
169 -11 41 -33 66 -49 56 -6 -4 -17 6 -25 21 -8 15 -31 44 -52 63 -21 19 -32
26 -24 15 8 -11 17 -22 21 -25 24 -23 122 -181 125 -203 3 -25 43 -121 75
-180 6 -11 8 -21 5 -24 -3 -3 -8 1 -12 10 -3 9 -11 14 -17 11 -8 -3 -12 8 -13
30 0 20 -12 52 -28 76 -15 22 -24 46 -20 52 4 7 3 8 -4 4 -13 -8 -31 23 -25
44 4 12 2 12 -5 2 -7 -10 -12 -8 -25 10 -8 13 -34 43 -57 68 l-42 45 44 -60
c23 -33 46 -62 49 -65 17 -14 110 -175 108 -189 -1 -9 0 -32 1 -51 2 -33 3
-33 10 -10 7 22 8 20 9 -16 1 -22 5 -44 10 -50 5 -5 12 -20 15 -34 4 -14 -4
-5 -18 20 -14 25 -25 39 -26 32 0 -6 9 -29 20 -49 11 -21 20 -43 20 -49 0 -6
7 -17 15 -24 8 -7 15 -20 15 -30 0 -19 36 -56 42 -43 3 4 4 3 2 -3 -1 -6 2
-17 7 -25 7 -12 10 -12 18 -1 4 8 12 12 17 11 16 -6 43 65 44 114 0 26 4 55 9
65 4 9 16 34 26 55 39 81 151 168 224 175 37 3 53 -1 81 -20 46 -31 98 -134
106 -211 9 -76 -22 -169 -125 -377 -83 -170 -111 -200 -181 -200 -47 0 -74 26
-89 84 -6 25 -12 46 -14 46 -1 0 -2 -75 -2 -168 -1 -184 -12 -242 -67 -339
-42 -75 -109 -148 -120 -131 -6 9 -8 8 -6 -6 4 -23 -104 -108 -190 -152 -71
-36 -67 -33 -59 -41 22 -21 260 145 330 232 86 105 136 251 138 405 1 62 3 70
18 65 36 -15 91 -17 106 -5 9 7 17 11 20 8 2 -2 12 -84 21 -182 19 -206 15
-241 -43 -359 -31 -60 -60 -96 -187 -222 -83 -83 -196 -184 -251 -225 -55 -41
-102 -77 -105 -80 -19 -22 -282 -198 -302 -201 -60 -12 -237 136 -314 262 -35
58 -40 71 -26 67 10 -3 111 32 155 54 20 10 37 16 37 13 0 -3 10 1 23 9 25 17
70 29 109 29 15 0 25 4 22 8 -3 5 7 14 23 20 15 5 34 15 41 22 8 6 23 12 34
14 10 2 32 10 48 18 16 8 34 15 40 15 14 0 44 29 37 36 -7 8 -57 -7 -57 -17 0
-5 -6 -9 -13 -9 -7 0 -31 -9 -52 -21 -55 -28 -177 -79 -192 -79 -7 0 -51 -16
-97 -35 -117 -48 -193 -62 -293 -53 -62 5 -96 14 -134 34 -59 33 -80 59 -119
153 -16 41 -50 96 -82 133 -73 85 -107 147 -172 313 -91 231 -90 229 -91 485
0 215 -1 227 -23 268 -12 23 -27 53 -32 67 -8 22 -7 23 23 23 18 0 76 2 130 5
112 5 177 -9 207 -45 25 -32 16 -40 -25 -22 -52 21 -146 29 -188 15 -45 -15
-84 -60 -65 -73 10 -8 10 -11 0 -15 -17 -7 -15 -23 4 -23 8 0 12 -5 8 -11 -4
-8 -1 -8 12 -1 11 6 31 8 45 5 14 -2 41 0 60 5 l34 10 -30 1 c-21 1 -26 4 -16
10 8 5 26 5 43 -1 29 -10 67 -8 101 7 12 5 17 2 18 -11 1 -23 27 52 28 82 1
12 -24 46 -66 87 -36 37 -69 68 -72 68 -3 1 -27 3 -53 5 -40 3 -46 1 -41 -13
6 -15 4 -15 -17 0 -31 21 -40 21 -40 1 0 -13 -3 -14 -14 -5 -11 9 -23 8 -51
-3 -37 -16 -37 -16 -32 7 16 65 37 213 41 293 10 166 84 347 174 423 50 43
103 61 307 106 61 14 153 36 205 50 93 24 359 67 413 67 15 0 27 4 27 9 0 5 8
9 19 9 21 0 84 24 80 31 -2 2 2 13 9 24 6 11 12 15 12 9 0 -5 -6 -16 -12 -23
-11 -10 -7 -11 17 -5 147 35 169 157 39 219 -31 15 -57 25 -59 23 -2 -2 18
-16 45 -33 39 -24 49 -37 54 -64 6 -39 0 -54 -10 -25 -14 39 -47 75 -98 109
-29 19 -59 35 -67 35 -8 0 1 -8 19 -17 44 -22 122 -98 122 -120 0 -15 -2 -15
-16 3 -14 18 -14 17 -3 -6 7 -14 14 -34 15 -45 2 -11 0 -14 -3 -7 -4 10 -8 10
-21 0 -10 -8 -13 -8 -9 -1 4 6 3 22 -2 35 l-10 23 -1 -25 c-1 -24 -2 -23 -15
8 -15 34 -80 109 -69 80 3 -10 10 -18 15 -18 12 0 29 -69 28 -115 -1 -38 -2
-36 -24 34 -19 59 -33 84 -71 122 -26 27 -49 47 -51 45 -2 -1 16 -23 40 -47
44 -46 71 -116 60 -157 -4 -19 -10 -14 -34 33 -27 53 -46 76 -99 120 -18 16
-17 11 8 -20 38 -49 76 -131 68 -151 -7 -19 -26 -18 -26 1 0 23 -43 86 -82
120 -54 48 -106 85 -118 85 -7 0 14 -20 47 -44 56 -41 123 -111 123 -129 0 -4
-11 5 -26 20 l-25 28 16 -33 c9 -18 15 -48 13 -65 l-4 -32 -12 40 c-7 22 -21
51 -32 65 -18 23 -17 20 3 -40 13 -36 21 -76 19 -90 -3 -21 -8 -15 -28 34 -25
62 -76 136 -108 156 -13 8 -7 -5 16 -36 39 -56 63 -104 73 -151 10 -49 0 -40
-32 30 -17 34 -52 85 -79 112 -50 52 -148 117 -194 129 -14 4 0 -7 30 -24 67
-38 134 -100 121 -113 -6 -6 -23 0 -43 15 -72 53 -242 116 -286 105 -11 -2 -7
-6 13 -11 192 -45 261 -81 349 -184 18 -21 18 -21 -5 -17 -13 3 -42 18 -64 35
-46 34 -153 100 -163 100 -4 0 16 -16 43 -35 84 -59 112 -83 136 -117 13 -17
17 -28 9 -23 -10 6 -12 4 -7 -9 4 -10 7 -21 7 -24 0 -4 5 0 10 8 8 13 10 13
10 -2 0 -36 -20 -26 -54 24 -47 71 -66 92 -101 113 l-30 18 33 -31 c18 -18 30
-37 27 -42 -9 -14 -27 -1 -19 13 4 7 3 9 -1 4 -5 -4 -24 7 -42 25 -31 30 -48
35 -20 6 16 -16 109 -128 125 -149 10 -13 8 -16 -16 -16 -24 0 -35 10 -67 59
-38 59 -121 135 -179 165 -27 13 -26 11 12 -22 62 -54 104 -120 108 -169 1
-23 0 -35 -3 -27 -3 8 -20 30 -36 48 -23 25 -33 30 -40 21 -6 -10 -8 -9 -4 3
7 20 2 26 -60 77 -63 52 -142 89 -208 97 l-50 5 55 -18 c30 -10 73 -28 95 -40
38 -19 136 -113 164 -157 7 -11 -2 -4 -20 16 -90 95 -218 160 -314 158 -23 0
-17 -4 25 -15 30 -8 74 -26 97 -40 60 -35 165 -123 158 -134 -3 -5 9 -20 27
-34 18 -14 29 -26 23 -26 -5 0 -44 28 -85 61 -108 87 -254 151 -290 129 -8 -5
5 -11 31 -15 24 -4 46 -10 49 -14 3 -3 25 -13 50 -21 25 -8 45 -21 45 -29 0
-8 9 -15 20 -16 11 -1 38 -18 60 -39 l40 -38 -37 27 c-20 15 -42 24 -48 20 -5
-3 -10 -2 -10 3 0 14 -114 62 -169 71 -27 4 -48 4 -45 -1 3 -4 -14 -9 -38 -9
-24 -1 -56 -5 -73 -9 -24 -6 -17 -8 35 -10 36 -1 74 -3 85 -4 47 -6 135 -40
176 -68 14 -9 28 -15 31 -12 3 2 29 -11 58 -31 28 -19 50 -35 48 -35 -23 0
-97 34 -91 42 3 6 1 8 -5 4 -6 -3 -30 1 -54 10 -125 47 -243 66 -278 44 -10
-6 4 -9 45 -9 79 0 152 -21 250 -71 58 -30 71 -40 47 -36 -25 4 -31 3 -26 -7
6 -9 4 -9 -7 -1 -8 6 -50 24 -94 40 -98 35 -203 39 -248 10 -28 -19 -83 -87
-57 -71 8 5 4 -7 -8 -27 -39 -62 -40 -184 -2 -282 6 -16 13 -27 16 -24 2 3 0
18 -6 33 -6 15 -9 30 -6 32 2 2 10 -13 16 -34 7 -21 26 -65 42 -97 31 -64 29
-88 -4 -43 -11 15 -24 24 -30 21 -13 -8 -48 25 -48 47 0 10 -9 23 -21 29 -12
7 -18 18 -15 26 3 8 2 13 -3 10 -17 -11 -52 98 -53 164 -2 146 40 221 160 281
l37 18 -38 1 c-21 0 -49 -7 -62 -16 -31 -20 -33 -9 -2 18 l22 19 -32 -17 c-18
-10 -30 -21 -28 -25 3 -4 -1 -12 -9 -18 -8 -6 -24 -35 -37 -64 -20 -45 -24
-68 -24 -168 0 -113 1 -116 38 -191 26 -53 54 -91 93 -127 31 -28 60 -51 65
-51 23 0 3 -205 -32 -336 -10 -38 -8 -46 27 -115 42 -82 40 -58 33 -359 -3
-140 8 -195 82 -390 70 -184 114 -268 192 -362 21 -26 54 -80 73 -119 59 -122
92 -153 194 -183 l45 -13 -50 -23 c-134 -60 -220 -95 -373 -151 -510 -186
-576 -212 -617 -250 -49 -46 -95 -120 -145 -236 -43 -101 -120 -327 -120 -353
0 -10 -32 -76 -70 -146 -82 -151 -111 -224 -112 -279 -1 -33 -6 -43 -32 -60
-25 -16 -37 -38 -63 -112 -30 -86 -72 -163 -152 -278 -37 -53 -68 -88 -168
-194 -35 -36 -63 -68 -63 -71 0 -11 -80 -51 -90 -45 -5 3 -10 0 -10 -7 -1 -28
-23 27 -36 91 -8 36 -17 78 -21 94 l-5 27 66 0 66 0 -2 338 -3 337 -2 -333 -3
-332 -64 0 c-57 0 -64 2 -70 23 -3 12 -26 108 -51 213 -63 273 -88 330 -152
355 -25 9 -187 18 -688 39 -143 6 -361 15 -485 20 -124 6 -344 14 -490 20
-146 5 -319 12 -386 16 l-121 6 -6 471 c-4 260 -7 1189 -7 2065 0 1128 -3
1592 -11 1592 -11 0 -6 -2363 7 -3594 l5 -538 -88 5 c-48 4 -91 6 -96 7 -4 0
-6 927 -5 2060 2 1133 0 2060 -4 2060 -5 0 -8 -926 -8 -2057z m5972 1956 c35
-12 81 -35 103 -52 22 -16 31 -26 20 -22 -124 47 -172 57 -266 53 -91 -3 -100
-6 -189 -51 -51 -26 -95 -46 -97 -44 -2 2 20 20 49 40 29 20 64 44 76 54 77
55 183 63 304 22z m63 -73 c85 -32 166 -91 221 -160 94 -117 176 -321 173
-430 -1 -32 -4 -40 -6 -21 -14 106 -88 317 -130 372 -33 46 -83 91 -117 110
-19 10 -3 -11 44 -57 39 -39 69 -74 66 -78 -4 -3 -33 21 -64 55 -32 33 -69 66
-82 72 -16 8 -8 -3 20 -29 25 -22 46 -46 46 -53 1 -7 2 -18 3 -24 0 -7 6 -13
12 -13 8 0 7 6 -2 18 -13 15 -12 16 4 3 9 -7 17 -19 17 -25 0 -7 13 -25 30
-41 26 -25 70 -102 70 -122 0 -11 -60 85 -60 96 0 5 -21 26 -47 47 -27 21 -50
41 -53 44 -18 19 -52 43 -45 31 5 -9 3 -12 -6 -9 -8 3 -13 11 -11 17 1 7 -2
10 -8 6 -5 -3 -10 -2 -10 4 0 6 -24 28 -52 49 -57 42 -148 97 -148 89 0 -3 16
-14 35 -26 19 -11 72 -51 116 -88 45 -38 86 -67 90 -65 5 1 8 -3 7 -10 -2 -7
3 -12 9 -13 7 0 20 -11 30 -25 9 -14 23 -31 30 -38 17 -17 36 -53 39 -72 2 -8
8 -16 14 -18 5 -2 7 -8 4 -13 -3 -6 1 -18 9 -27 9 -9 27 -41 40 -69 13 -29 28
-49 32 -45 5 4 5 1 0 -7 -4 -7 -2 -16 4 -21 7 -4 16 -24 21 -46 10 -44 5 -61
-6 -18 -6 24 -56 125 -107 218 -33 58 -142 186 -159 186 -4 0 -43 25 -85 55
-138 98 -313 171 -376 158 -35 -7 54 39 103 53 72 21 202 12 285 -20z m-190
-104 c134 -71 257 -151 293 -191 66 -73 209 -321 197 -341 -3 -6 -2 -10 3 -10
13 0 41 -134 47 -220 4 -68 4 -70 -5 -25 -5 28 -14 84 -21 125 -14 92 -29 125
-26 58 1 -27 4 -48 7 -48 3 0 6 -26 7 -57 l2 -58 -14 63 c-8 35 -26 89 -41
120 -16 31 -30 64 -34 72 -14 38 -73 129 -80 125 -5 -3 -12 0 -16 6 -4 8 -3 9
4 5 17 -10 15 9 -1 23 -8 6 -18 7 -22 3 -5 -4 -5 1 -2 10 3 10 2 20 -3 23 -4
3 -10 0 -12 -7 -3 -7 -7 -5 -11 6 -5 11 -3 15 5 10 8 -5 9 -2 5 10 -4 9 -3 15
2 12 10 -6 131 -182 131 -190 0 -3 11 -22 25 -42 14 -20 22 -40 19 -45 -3 -5
0 -17 5 -26 9 -15 10 -12 11 15 0 29 -18 72 -50 122 -5 8 -30 50 -55 92 -53
89 -130 178 -154 178 -9 0 -33 13 -52 29 -81 67 -315 171 -384 171 -14 0 -25
5 -25 11 0 8 28 10 93 7 79 -4 100 -9 152 -36z m-218 -276 c23 -21 55 -45 72
-54 82 -46 161 -100 150 -104 -12 -4 50 -38 77 -42 8 -1 20 -8 27 -16 9 -10 9
-11 0 -6 -28 16 -11 -3 26 -29 22 -15 45 -24 51 -20 6 3 9 2 8 -3 -2 -6 1 -10
5 -11 11 0 75 -71 88 -96 6 -11 -4 -5 -21 13 -17 18 -67 58 -113 89 -45 30
-84 59 -87 62 -3 4 -36 24 -75 46 -38 21 -91 53 -116 71 -53 39 -66 43 -41 13
21 -25 98 -81 142 -104 17 -9 30 -19 27 -21 -6 -6 -61 21 -101 50 -40 29 -113
108 -206 223 -20 25 -9 26 18 2 15 -14 46 -43 69 -63z m556 -1664 c9 -10 28
-44 43 -77 65 -142 33 -367 -97 -670 -23 -55 -50 -111 -60 -125 -9 -14 -50
-80 -90 -148 -156 -260 -224 -371 -237 -384 -10 -10 -23 -1 -70 43 -31 31 -95
89 -142 130 -184 162 -272 215 -341 206 -52 -7 -49 5 9 33 106 52 421 278 587
420 271 232 399 433 361 563 -10 32 11 38 37 9z m445 -336 c25 -12 593 -200
767 -252 44 -14 186 -54 315 -90 129 -36 255 -72 280 -81 25 -8 52 -17 60 -20
20 -7 -77 -32 -100 -26 -10 3 -20 -3 -24 -14 -6 -14 -5 -16 5 -5 7 6 18 12 23
12 6 0 0 -8 -14 -17 -14 -10 -25 -13 -27 -6 -2 5 -14 8 -27 6 -12 -3 -39 2
-60 11 -20 8 -114 38 -209 66 -266 79 -572 179 -548 180 7 0 52 -12 100 -26
47 -14 106 -31 131 -39 25 -7 49 -10 54 -7 5 3 -19 14 -54 24 -34 11 -59 22
-56 25 6 6 99 -21 201 -58 77 -28 98 -32 91 -21 -3 6 -21 14 -39 17 -17 4 -45
13 -62 20 -27 12 -185 65 -210 71 -5 2 -89 29 -185 62 -260 89 -304 102 -334
102 -15 0 -29 7 -33 16 -4 11 -13 14 -29 10 -14 -4 -24 -2 -24 4 0 6 5 8 10 5
6 -3 10 -1 10 4 0 6 -6 11 -14 11 -7 0 -19 7 -26 15 -15 19 -7 19 28 1z
m-1810 -325 c2 -19 0 -37 -5 -40 -5 -3 -43 -46 -85 -96 -42 -49 -111 -126
-153 -170 -68 -71 -76 -77 -71 -50 5 24 4 27 -4 12 -6 -9 -16 -15 -21 -12 -5
4 -6 11 -3 17 5 7 2 8 -5 3 -9 -5 -7 -13 10 -31 l22 -23 -32 -37 c-18 -20 -31
-43 -29 -52 2 -9 21 -30 44 -47 40 -30 40 -31 20 -46 -12 -9 -73 -40 -136 -71
-63 -30 -124 -65 -135 -78 -18 -20 -20 -39 -23 -232 -4 -197 7 -506 28 -818
15 -222 19 -348 11 -305 -7 40 -10 38 -27 -12 -12 -38 -137 201 -186 353 -18
57 -36 104 -39 104 -10 0 -28 -77 -40 -170 -6 -47 -17 -116 -25 -153 -8 -38
-14 -82 -14 -98 0 -16 -4 -29 -9 -29 -5 0 -33 44 -63 98 -92 167 -138 272
-138 313 0 11 -4 18 -9 15 -5 -3 -11 9 -15 27 -3 17 -12 68 -20 112 l-15 80 4
-105 c3 -58 9 -139 15 -180 6 -41 13 -101 17 -132 3 -32 10 -58 15 -58 6 0 7
-7 4 -17 -14 -35 62 -383 135 -616 17 -54 29 -100 26 -103 -5 -6 -70 195 -101
318 -75 291 -164 893 -173 1168 -6 182 3 276 42 440 26 107 102 349 114 363 7
7 158 66 351 137 306 112 435 163 535 208 75 35 121 50 145 49 32 -2 35 -5 38
-36z m72 -18 c18 -32 57 -86 87 -120 56 -64 178 -163 201 -163 27 0 5 -25 -33
-38 -67 -22 -102 -57 -144 -145 -22 -45 -46 -109 -55 -142 -18 -75 -30 -179
-17 -150 5 11 10 34 11 50 1 17 14 68 30 115 22 66 28 78 29 53 1 -17 12 -98
26 -179 14 -81 25 -160 25 -175 0 -15 -13 -83 -30 -150 -123 -505 -203 -1207
-245 -2164 -10 -215 -11 -227 -26 -236 -8 -5 -17 -9 -20 -9 -3 0 -9 116 -13
257 -4 142 -13 398 -21 568 -37 785 -7 1267 121 1910 19 99 37 181 38 183 2 1
6 -26 10 -60 12 -113 28 -186 43 -205 13 -17 14 -16 8 7 -16 60 -24 112 -30
181 -4 41 -13 142 -22 224 -20 193 -28 445 -15 445 6 0 25 -26 42 -57z m-65
-162 l0 -108 -39 -57 c-41 -59 -115 -131 -178 -174 l-37 -24 -53 30 c-29 16
-53 35 -53 41 0 12 342 401 353 401 4 0 7 -49 7 -109z m3391 8 c55 -26 140
-109 179 -174 36 -62 31 -66 -9 -7 -51 77 -125 143 -181 164 -56 21 -143 16
-182 -9 -12 -8 -28 -11 -34 -7 -8 4 -9 3 -5 -4 5 -8 -1 -12 -16 -12 -19 0 -20
-2 -8 -11 12 -8 10 -9 -7 -4 -15 4 -29 -1 -42 -14 -12 -12 -23 -21 -26 -21 -3
0 -19 -15 -36 -32 -23 -25 -28 -27 -19 -10 6 12 35 46 64 75 93 93 211 117
322 66z m-2195 -225 c-27 -82 -54 -165 -59 -184 -6 -19 -33 -111 -60 -205
-132 -450 -254 -950 -306 -1250 -47 -270 -111 -779 -161 -1265 -11 -110 -13
-22 -14 750 -1 987 -6 1130 -55 1560 l-14 125 29 60 c15 33 53 98 82 144 l54
84 102 -92 c57 -53 108 -91 117 -89 15 3 184 263 282 435 26 45 48 81 49 79 1
-1 -19 -69 -46 -152z m-1190 -51 c-6 -70 -24 -198 -41 -283 -63 -335 -69 -363
-65 -320 15 152 17 198 7 204 -7 4 -13 -12 -17 -41 -4 -27 -13 -83 -21 -125
-37 -209 -69 -531 -91 -923 -6 -108 -7 -115 -16 -76 -5 24 -18 57 -29 72 -11
15 -18 35 -15 43 3 8 0 21 -7 28 -7 8 -18 23 -25 36 -13 25 -31 29 -31 7 0 -8
-6 -15 -14 -15 -10 0 -16 13 -18 42 -2 26 -8 43 -18 45 -12 4 -12 3 -1 -5 23
-16 4 -52 -29 -52 -28 0 -40 15 -40 50 0 10 -9 20 -21 23 -20 5 -20 5 -4 -13
14 -15 15 -31 9 -105 -4 -47 -10 -81 -14 -75 -4 7 -5 40 -3 75 3 36 1 70 -5
81 -9 15 -11 -2 -9 -73 3 -115 -10 -98 -19 27 -4 52 -10 86 -14 76 -3 -9 -3
-52 1 -94 4 -42 13 -153 19 -247 13 -202 30 -339 75 -615 81 -489 96 -582 92
-586 -6 -7 -95 498 -136 776 -26 175 -58 529 -82 915 -13 206 -18 806 -6 847
6 23 30 38 153 98 81 39 174 90 208 112 74 50 164 135 202 189 15 22 29 37 31
35 3 -2 0 -62 -6 -133z m-1123 35 c-13 -23 -26 -44 -30 -46 -4 -2 -5 -9 -2
-16 3 -8 -1 -20 -9 -28 -26 -26 -98 -287 -117 -423 -13 -92 -12 -294 0 -374 6
-35 9 -66 6 -68 -13 -14 -79 154 -110 282 l-15 60 3 -105 c5 -121 18 -200 45
-263 16 -37 17 -48 7 -62 -12 -17 -15 -17 -48 -1 -20 10 -56 37 -79 61 -30 30
-46 40 -51 32 -11 -17 0 -45 44 -109 21 -32 36 -58 32 -58 -4 0 1 -10 12 -22
13 -15 5 -12 -27 11 -111 78 -131 112 -110 190 15 58 76 187 127 271 24 39 48
96 58 138 18 76 87 268 129 363 44 98 139 230 155 215 2 -3 -7 -24 -20 -48z
m1556 12 c6 -6 -6 -12 -33 -16 -38 -6 -42 -10 -41 -33 3 -40 1 -46 -19 -70
-18 -20 -43 -133 -44 -194 0 -17 -3 -24 -7 -17 -5 9 -10 5 -15 -10 -4 -14 -3
-25 5 -30 7 -4 10 -15 7 -24 -4 -10 -1 -16 8 -16 9 0 16 18 21 58 8 67 15 83
24 57 4 -11 1 -37 -5 -60 -7 -22 -12 -44 -11 -50 0 -5 -20 -12 -46 -15 -55 -7
-49 -19 -73 150 -21 147 -19 192 6 224 32 41 71 56 126 51 40 -4 43 -3 18 5
-25 8 -22 9 20 5 27 -3 53 -9 59 -15z m-121 -507 c-2 -38 -13 -150 -24 -250
-10 -101 -19 -205 -19 -232 0 -27 -5 -53 -12 -57 -6 -4 -9 -3 -6 2 3 5 0 41
-8 79 l-13 70 5 -62 c4 -43 2 -63 -5 -63 -6 0 -11 14 -11 32 0 46 -12 26 -15
-27 -3 -47 -24 -105 -37 -105 -5 0 -8 -30 -9 -67 l-1 -68 -10 45 c-13 55 -12
59 -43 -128 -23 -142 -33 -235 -39 -373 -1 -30 -6 -61 -10 -67 -4 -7 -9 -38
-11 -70 -2 -31 -4 -59 -6 -62 -1 -3 -4 -23 -5 -45 -1 -22 -5 -60 -8 -85 -3
-25 -12 -108 -20 -185 -7 -77 -14 -121 -15 -98 -3 108 70 827 115 1123 27 182
72 419 110 578 13 57 24 119 24 137 0 34 9 41 56 44 21 1 21 -3 17 -66z
m-4983 -358 c47 -3 285 -12 530 -20 245 -9 544 -20 665 -25 121 -6 380 -17
575 -25 195 -8 375 -18 400 -21 63 -9 88 -28 115 -87 25 -55 115 -425 210
-862 32 -143 86 -386 122 -540 35 -154 91 -397 124 -540 101 -444 153 -653
249 -1013 23 -85 39 -156 36 -159 -3 -3 -11 7 -17 23 -34 85 -224 841 -313
1244 -53 240 -169 756 -190 850 -9 36 -40 175 -71 310 -97 423 -145 621 -160
655 -9 22 -27 41 -54 54 -56 29 -64 26 -37 -14 13 -19 33 -76 45 -127 12 -51
29 -122 37 -158 9 -36 29 -128 44 -205 46 -224 77 -367 126 -575 68 -296 81
-351 120 -530 78 -353 135 -599 199 -844 14 -55 23 -101 21 -103 -2 -3 -14 30
-26 71 -13 42 -26 74 -29 72 -3 -2 -7 17 -9 42 -1 26 -7 51 -12 56 -6 6 -11
19 -11 30 -1 18 -2 18 -6 3 -3 -10 1 -24 7 -32 7 -9 10 -28 6 -47 -6 -32 -7
-33 -51 -30 -25 2 -45 8 -45 13 0 5 -36 9 -80 9 -64 0 -80 3 -80 15 0 8 7 15
15 15 22 0 18 17 -5 23 -10 3 -24 -1 -31 -9 -6 -8 -22 -14 -35 -14 -19 0 -24
-5 -24 -25 0 -22 -4 -25 -40 -25 -36 0 -40 3 -40 25 0 23 -4 25 -40 25 -29 0
-40 -4 -40 -15 0 -11 -11 -15 -40 -15 -22 0 -40 -4 -40 -10 0 -5 -18 -10 -40
-10 -36 0 -40 -2 -40 -25 0 -16 -6 -25 -15 -25 -10 0 -15 -10 -15 -30 l0 -30
-65 0 -65 0 0 -40 c0 -29 4 -40 15 -40 11 0 15 -11 15 -40 0 -29 -4 -40 -15
-40 -9 0 -15 9 -15 24 0 66 -40 78 -58 17 -7 -21 -12 -43 -12 -49 0 -20 32
-43 51 -37 15 5 19 2 18 -17 0 -13 -3 -17 -6 -10 -6 16 -43 16 -43 -1 0 -10
-15 -13 -60 -11 -36 2 -58 -1 -55 -7 4 -5 21 -9 40 -9 19 0 37 -5 41 -11 7
-12 -24 -10 -129 7 -62 10 -37 28 51 38 45 5 82 13 82 19 0 6 -27 7 -72 3
-101 -10 -118 -15 -111 -33 5 -13 -1 -14 -38 -8 -24 4 -50 11 -59 16 -8 4 -35
13 -60 18 -40 9 -155 37 -250 61 -19 5 -62 14 -95 20 -262 49 -324 61 -395 77
-36 8 -95 19 -132 25 -37 6 -66 14 -63 17 2 4 -8 8 -23 9 -25 2 -26 1 -7 -11
24 -16 94 -37 124 -37 11 0 21 -4 21 -10 0 -5 -16 -9 -35 -8 -19 1 -35 5 -35
10 0 4 -12 8 -27 8 -35 0 -27 -7 38 -30 30 -11 46 -19 36 -20 -25 0 -168 29
-194 40 -25 10 -29 23 -73 225 -60 280 -81 372 -100 450 -10 44 -46 190 -79
325 -32 135 -97 403 -145 595 -73 299 -113 471 -201 865 -16 72 -35 186 -35
212 0 10 10 27 22 38 18 16 31 19 63 16 22 -3 78 -8 125 -11z m3223 -315 c58
-47 108 -91 111 -98 6 -14 -2 -11 -46 20 -14 10 -38 18 -53 18 l-27 0 26 -31
c14 -17 26 -36 27 -42 1 -7 3 -32 4 -57 2 -25 6 -75 9 -112 6 -69 -6 -98 -40
-98 -8 0 -14 -4 -14 -9 0 -5 -8 -12 -17 -15 -10 -4 -39 -19 -64 -34 -25 -15
-65 -38 -89 -52 -23 -14 -52 -31 -64 -37 -11 -7 -16 -13 -9 -13 7 0 28 9 48
20 19 11 35 16 35 11 0 -4 -40 -28 -90 -52 -49 -24 -90 -47 -90 -51 0 -4 53
-9 117 -10 l117 -3 -115 -33 c-129 -36 -213 -55 -247 -53 -13 0 -21 -3 -17 -8
3 -6 -9 -11 -27 -13 -18 -2 -31 -7 -28 -13 3 -5 16 -9 30 -8 14 2 47 3 73 3
55 0 222 26 252 39 11 5 34 14 52 19 28 9 31 8 35 -13 6 -28 1 -36 -32 -52
-40 -20 -340 -93 -381 -93 -21 0 -46 -3 -56 -7 -16 -6 -15 -8 7 -14 14 -3 -4
-6 -41 -5 l-66 1 -27 122 c-16 68 -30 131 -33 142 -4 15 5 22 40 36 35 13 69
43 144 124 183 197 289 358 328 499 11 37 26 69 38 77 26 18 33 14 180 -105z
m2487 -23 c-6 -40 -20 -87 -31 -105 -18 -32 -18 -59 1 -47 4 3 15 2 24 -1 23
-9 24 -164 1 -164 -11 0 -15 -11 -15 -40 0 -36 -3 -40 -24 -40 -18 0 -26 -7
-29 -22 -3 -13 -3 6 0 42 3 58 2 63 -10 45 -8 -11 -17 -38 -21 -60 -3 -22 -9
-50 -12 -62 -5 -17 -2 -23 9 -23 8 0 20 -7 27 -15 16 -19 5 -65 -16 -65 -12 0
-13 4 -4 20 12 22 6 40 -13 40 -11 0 -37 -64 -37 -90 0 -6 11 -15 25 -20 32
-12 32 -30 1 -30 -15 0 -26 -7 -29 -17 -3 -10 -5 -3 -6 15 0 17 -5 32 -10 32
-8 0 0 -60 14 -92 6 -14 2 -18 -15 -18 -22 0 -23 -3 -17 -57 12 -113 47 -167
47 -73 0 47 2 50 25 50 23 0 25 4 25 40 0 22 5 40 10 40 6 0 11 19 11 43 1 46
4 39 15 -38 6 -44 8 -47 17 -27 5 12 13 22 18 22 9 0 0 -36 -17 -69 l-13 -25
-10 25 c-6 15 -10 18 -10 8 -1 -9 -8 -20 -17 -23 -14 -5 -16 -16 -11 -56 3
-27 2 -52 -4 -55 -5 -4 -9 3 -9 14 0 12 -5 21 -11 21 -6 0 -9 -17 -6 -46 4
-45 3 -45 -22 -39 -14 4 -37 16 -50 28 -23 21 -23 25 -17 132 3 61 11 128 17
150 6 22 15 63 21 90 6 28 13 57 16 65 3 8 6 20 7 26 2 5 13 48 25 95 12 46
26 100 30 119 4 19 13 48 19 63 6 16 11 39 11 53 0 13 5 24 10 24 6 0 10 12
10 26 0 14 9 58 20 97 10 40 22 86 27 102 l7 30 4 -33 c2 -18 -2 -66 -8 -105z
m-184 -139 c-4 -18 -11 -53 -16 -78 -4 -25 -13 -72 -20 -105 -6 -33 -15 -87
-20 -120 -5 -33 -16 -103 -25 -155 -24 -147 -62 -431 -95 -725 -5 -49 -17
-147 -25 -217 -9 -70 -17 -162 -18 -203 -1 -47 -6 -75 -13 -75 -13 0 -14 -15
27 370 59 558 107 884 183 1251 9 41 16 77 16 82 0 4 3 7 6 7 4 0 3 -15 0 -32z
m2080 -636 c10 -10 45 -37 77 -60 31 -24 57 -47 57 -52 0 -6 9 -10 20 -10 28
0 101 -40 94 -52 -4 -5 -16 -7 -27 -4 -12 3 -26 1 -33 -5 -6 -5 -43 -18 -80
-27 -48 -12 -70 -23 -72 -35 -3 -14 4 -17 35 -17 54 0 256 -31 268 -41 5 -5
-12 -9 -40 -9 -28 0 -68 -7 -90 -15 l-40 -15 65 5 c52 4 59 3 35 -5 -16 -6
-44 -11 -62 -12 -18 -1 -34 -7 -37 -15 -3 -7 -14 -13 -25 -13 -11 0 -40 -9
-66 -20 -26 -11 -55 -20 -66 -20 -11 0 -27 -4 -37 -9 -9 -5 -51 -19 -92 -32
-41 -12 -79 -26 -84 -31 -6 -4 -18 -8 -28 -8 -10 0 -42 -13 -73 -30 -42 -23
-55 -26 -55 -15 0 8 5 15 11 15 5 0 7 4 4 10 -3 5 -2 18 4 27 9 17 10 17 16 1
4 -10 11 -18 17 -18 5 0 7 4 4 8 -5 9 10 12 50 12 28 0 27 30 -1 47 -19 12
-19 12 5 13 18 0 21 3 12 9 -11 6 -13 27 -8 86 3 42 8 81 11 85 3 5 9 31 15
58 9 52 32 83 115 164 54 52 71 57 101 30z m-3862 -449 l35 -103 -117 -2 -117
-2 119 -6 119 -5 29 -85 c15 -46 28 -88 28 -92 0 -4 -10 -8 -22 -9 -22 0 -22
-1 -3 -8 11 -5 23 -7 26 -5 6 3 18 -29 19 -46 0 -3 -17 -5 -38 -6 -139 -4
-352 -18 -345 -24 4 -4 67 -3 138 2 72 5 159 7 194 6 l64 -3 18 -52 18 -53
-22 0 c-74 0 -571 -35 -656 -46 -24 -3 -41 -2 -38 3 3 5 -11 7 -31 4 l-37 -5
38 -6 c20 -4 41 -10 45 -15 4 -4 -6 -5 -23 -2 -16 3 -49 9 -72 12 l-43 7 52
35 c29 19 68 53 88 76 19 22 126 131 236 242 111 111 214 223 229 249 15 26
29 46 30 44 2 -2 19 -49 39 -105z m3631 -293 c-13 -5 26 -9 104 -9 174 -1 309
-39 391 -110 l25 -22 -25 7 c-14 3 -30 11 -37 16 -7 6 -18 6 -30 0 -94 -49
-229 -56 -433 -22 -136 22 -356 28 -373 11 -11 -11 14 -16 61 -12 15 1 21 -2
17 -8 -3 -7 3 -11 14 -11 24 0 107 -19 136 -31 22 -9 181 -46 230 -53 17 -2
-10 -2 -60 0 -105 5 -210 19 -350 44 -156 28 -256 42 -262 36 -3 -3 3 -8 13
-11 75 -23 296 -144 376 -205 14 -11 31 -20 37 -20 6 0 11 -4 11 -8 0 -5 16
-17 35 -28 19 -10 37 -24 40 -32 5 -15 -4 -11 -50 22 -16 12 -43 28 -60 36
-16 8 -43 23 -60 35 -94 64 -272 151 -390 191 -92 31 -113 34 -161 28 l-56 -7
48 -20 c71 -30 128 -63 132 -76 8 -24 -98 -11 -199 24 -98 34 -209 53 -209 36
0 -4 21 -16 46 -26 42 -16 137 -81 192 -131 11 -10 28 -25 36 -32 36 -29 17
-35 -101 -29 -65 4 -158 11 -208 17 -49 6 -122 12 -162 14 -39 2 -76 7 -82 10
-17 11 -13 -9 7 -32 9 -11 25 -30 35 -41 9 -12 17 -27 17 -35 0 -8 6 -16 14
-19 15 -6 29 -47 15 -47 -5 0 -9 4 -9 9 0 5 -18 37 -40 70 -69 104 -185 181
-311 204 -32 6 -59 14 -59 18 0 18 691 109 831 109 57 0 120 5 139 11 19 5
103 14 185 18 148 8 154 9 310 64 100 34 177 55 205 55 34 1 40 -2 25 -8z
m-4190 -295 c39 -7 147 -25 240 -40 164 -26 464 -82 688 -128 l108 -23 -68
-49 c-37 -28 -134 -98 -216 -158 l-149 -107 -101 19 c-56 11 -172 31 -257 45
-85 14 -218 37 -295 51 -77 14 -171 30 -210 36 -38 7 -73 15 -77 18 -4 4 -15
42 -23 86 -9 44 -18 90 -21 102 -3 19 4 27 45 47 27 14 56 32 65 41 12 13 23
14 51 6 21 -5 33 -6 30 0 -4 5 15 10 42 11 44 1 45 2 10 5 -20 2 -35 8 -32 13
3 5 12 7 20 3 8 -3 15 0 15 6 0 12 -6 13 -37 5 -13 -4 -21 -10 -18 -14 3 -5
-4 -12 -16 -15 -39 -13 -31 4 16 34 50 32 52 32 190 6z m2618 -5 c161 -60 255
-186 373 -500 27 -69 33 -154 15 -188 -18 -34 -72 -69 -126 -81 -55 -13 -244
-28 -287 -23 -28 3 -40 22 -15 22 23 0 121 51 150 78 69 65 87 143 58 256 -41
157 -133 286 -268 376 -70 47 -81 51 -123 47 -25 -2 -55 -8 -67 -12 -47 -15
-21 14 30 34 65 26 176 22 260 -9z m-763 0 c102 -5 196 -12 210 -14 105 -19
310 -31 310 -18 0 16 70 2 108 -22 70 -44 179 -155 220 -223 77 -129 96 -265
49 -346 -31 -53 -73 -83 -197 -140 -148 -69 -208 -81 -400 -81 -119 0 -186 4
-240 16 -103 23 -193 11 -390 -54 -179 -59 -292 -73 -348 -44 -44 23 -56 48
-34 73 9 11 114 68 232 127 213 106 216 107 340 127 69 10 149 22 178 26 28 3
52 10 52 15 0 13 -50 8 -220 -22 -134 -22 -136 -23 -354 -131 -131 -65 -229
-120 -245 -137 -30 -34 -120 -66 -228 -82 -80 -13 -119 -1 -149 45 -30 46 -16
68 61 93 75 24 295 129 454 217 79 44 244 108 413 162 9 3 19 12 23 20 4 12 2
13 -7 5 -7 -5 -83 -33 -168 -62 -89 -30 -203 -77 -270 -112 -243 -128 -332
-169 -455 -210 -33 -11 -74 -33 -91 -48 -35 -30 -126 -48 -183 -35 -60 13
-139 112 -127 160 6 25 85 100 156 148 25 17 118 82 208 146 89 64 189 135
222 158 33 23 79 47 103 53 71 18 229 81 288 115 63 36 136 63 207 75 64 11
63 11 272 0z m-1966 -385 c105 -19 292 -53 416 -74 124 -22 237 -44 250 -49
l25 -9 -30 -16 c-28 -15 -47 -30 -120 -98 l-30 -28 -148 29 c-82 17 -159 30
-170 29 -31 -1 11 -11 163 -39 69 -13 129 -27 134 -32 23 -19 -10 -19 -121 2
-65 12 -140 26 -168 30 -27 5 -72 14 -100 20 -27 6 -97 17 -154 25 -94 12
-134 26 -119 40 3 3 72 -6 153 -20 154 -26 182 -29 172 -19 -3 3 -79 18 -169
33 l-163 27 -17 62 c-31 115 -31 122 -12 122 10 0 103 -16 208 -35z m-26 -230
c23 -4 42 -11 42 -15 0 -5 8 -6 19 -3 15 4 124 -15 423 -73 14 -3 29 -12 32
-21 5 -11 2 -14 -10 -9 -8 3 -30 6 -47 6 -24 0 -28 3 -17 10 11 7 5 10 -25 10
-22 0 -87 9 -145 19 -123 23 -218 34 -180 22 21 -7 22 -9 8 -15 -9 -4 -29 -6
-44 -4 -34 4 -45 28 -13 28 12 0 19 3 16 7 -10 9 -167 20 -167 12 0 -4 23 -10
50 -14 28 -4 50 -11 50 -17 0 -6 -11 -8 -27 -3 -16 4 -40 7 -55 7 -15 1 -28 8
-31 17 -3 9 -8 24 -12 34 -7 17 -4 18 41 14 27 -3 68 -9 92 -12z m-73 -76 c-4
-5 17 -9 48 -9 29 0 57 -3 61 -7 4 -5 17 -9 29 -9 47 -4 172 -33 175 -42 1 -4
17 -7 35 -5 26 3 28 1 12 -6 -16 -8 -12 -9 20 -8 22 0 78 -6 125 -14 69 -11
79 -15 55 -20 -25 -6 -24 -6 7 -4 21 2 41 -1 44 -6 3 -5 14 -9 25 -9 10 0 19
-5 19 -11 0 -17 -174 4 -240 28 -8 4 -19 7 -25 8 -5 0 -17 4 -25 7 -23 10
-166 38 -245 48 -100 14 -155 31 -155 50 0 9 9 16 20 17 11 1 18 -2 15 -8z
m100 -74 c38 -8 83 -15 100 -16 16 0 62 -8 100 -18 53 -14 65 -20 51 -26 -11
-5 -45 -3 -76 3 -69 15 -80 15 -80 2 0 -5 15 -10 34 -10 18 0 57 -4 85 -10 42
-8 56 -7 66 4 12 11 23 11 70 -2 30 -8 55 -18 55 -21 0 -11 -136 -11 -218 1
-63 9 -85 9 -94 0 -13 -13 -66 -16 -92 -6 -26 10 -7 30 32 32 36 3 61 16 50
27 -3 3 -48 11 -99 18 -52 6 -97 16 -101 22 -15 20 -8 27 20 21 15 -3 58 -12
97 -21z m4 -119 c31 -8 69 -17 84 -20 15 -4 25 -11 22 -16 -8 -13 75 -12 195
1 52 7 181 13 287 14 105 1 203 5 216 9 17 4 29 0 41 -13 16 -18 15 -19 -26
-25 -70 -10 -287 -32 -814 -83 l-61 -6 -11 46 c-15 57 -15 57 1 52 29 -9 94
-12 112 -5 14 6 5 9 -32 9 -62 1 -103 15 -103 36 0 19 17 19 89 1z m811 -81
c0 -9 -78 -24 -155 -30 -135 -10 -130 -9 -133 -39 l-4 -28 89 7 c109 8 140 14
121 26 -9 6 -5 9 15 9 15 0 27 -2 27 -5 0 -19 -132 -48 -260 -56 -44 -4 -44
-3 -53 34 l-9 38 -77 -6 c-42 -3 -97 -8 -123 -11 -46 -6 -46 -6 -41 -38 5 -31
3 -34 -27 -40 -60 -11 -79 -8 -75 14 5 25 -7 26 -22 1 -10 -15 -10 -21 0 -24
10 -5 -9 -7 -89 -11 -11 -1 -21 13 -29 40 l-12 41 121 12 c67 7 155 16 196 21
41 5 111 12 155 15 44 4 134 12 200 20 134 14 185 17 185 10z"/>
<path d="M1721 2124 c-42 -35 -56 -91 -40 -158 14 -58 29 -87 73 -134 41 -45
76 -62 126 -62 94 0 132 81 96 201 -45 149 -171 224 -255 153z m116 5 c74 -28
133 -131 133 -234 0 -129 -109 -155 -212 -51 -64 66 -91 188 -53 247 28 43 79
58 132 38z"/>
<path d="M5346 1148 c-22 -11 -92 -38 -155 -60 -205 -70 -271 -98 -334 -141
-34 -24 -89 -58 -122 -77 -81 -45 -105 -59 -210 -121 -49 -29 -108 -62 -131
-74 -59 -31 -85 -51 -77 -58 3 -4 21 4 39 18 18 14 35 25 38 25 2 0 57 32 122
70 64 39 119 70 123 70 3 0 60 34 126 75 160 99 236 135 385 185 141 46 240
88 240 101 0 11 2 12 -44 -13z"/>
<path d="M601 6633 c1 -577 5 -1502 8 -2058 6 -888 7 -761 9 1048 1 1366 -1
2057 -8 2057 -7 0 -10 -355 -9 -1047z"/>
<path d="M3435 5720 c0 -1081 1 -1523 2 -983 2 541 2 1425 0 1965 -1 541 -2
99 -2 -982z"/>
<path d="M7565 6760 c0 -509 1 -717 2 -462 2 254 2 670 0 925 -1 254 -2 46 -2
-463z"/>
<path d="M7620 6340 c0 -757 4 -1340 9 -1340 5 0 9 583 9 1340 0 809 -3 1340
-9 1340 -5 0 -9 -531 -9 -1340z"/>
<path d="M5535 6580 c-3 -5 -20 -10 -36 -10 -20 0 -39 -9 -56 -27 -14 -16 -20
-20 -13 -10 11 15 9 17 -14 17 -14 0 -26 -5 -26 -11 0 -6 -6 -9 -12 -6 -7 2
-25 -2 -39 -9 -15 -7 -29 -10 -33 -7 -3 4 -20 -6 -36 -22 -17 -16 -30 -25 -30
-21 0 5 -6 3 -14 -3 -11 -10 -17 -7 -30 11 l-16 22 0 -27 c0 -15 4 -27 9 -27
5 0 12 -8 16 -19 5 -18 24 -21 55 -9 16 7 65 19 90 23 8 2 60 12 114 24 104
22 174 21 231 -4 17 -7 50 -16 75 -20 40 -7 43 -6 31 9 -7 9 -39 31 -70 48
-31 18 -64 38 -73 43 -58 35 -77 42 -81 31 -3 -8 -8 -7 -19 2 -11 9 -18 10
-23 2z"/>
<path d="M6634 6521 c-58 -35 -102 -118 -123 -232 -10 -49 -10 -72 -2 -87 15
-29 14 -82 -4 -132 -8 -23 -15 -51 -15 -61 0 -25 34 -25 59 0 10 10 32 26 49
36 40 24 67 62 81 110 15 54 -17 111 -78 142 -63 32 -66 37 -51 74 12 28 15
30 25 15 11 -15 13 -15 18 4 3 13 0 20 -9 20 -11 0 -12 4 -5 18 26 45 61 74
98 79 44 6 63 -10 83 -70 15 -46 17 -205 3 -232 -6 -11 -21 -40 -33 -65 -13
-25 -30 -54 -39 -65 -42 -50 -45 -56 -28 -49 22 8 78 86 107 149 28 62 37 168
20 250 -21 102 -84 140 -156 96z m-42 -256 c46 -31 63 -81 46 -137 -6 -21 -15
-38 -20 -38 -5 0 -22 -10 -37 -21 -29 -21 -51 -19 -51 4 0 8 3 7 9 -2 5 -7 14
-10 21 -6 9 5 9 9 1 14 -6 4 -13 27 -16 50 -3 38 -2 41 12 29 15 -12 15 -11 5
9 -15 27 -15 36 -1 27 8 -4 9 1 3 17 -4 13 -7 32 -6 42 0 9 -4 17 -10 17 -6 0
-8 -13 -4 -34 4 -20 2 -37 -4 -41 -11 -7 -14 52 -4 79 8 21 13 20 56 -9z"/>
<path d="M5330 6399 c-14 -10 -19 -19 -12 -19 17 0 15 -11 -9 -40 -11 -14 -18
-19 -14 -13 3 7 -4 23 -16 35 -12 13 -19 17 -14 10 4 -9 -1 -19 -14 -28 -12
-8 -21 -21 -20 -27 0 -9 2 -9 6 1 7 19 23 14 23 -8 0 -17 -5 -19 -32 -14 -33
6 -33 6 -10 -10 12 -10 22 -26 22 -36 0 -31 18 -33 22 -3 2 17 9 28 18 28 8 0
19 6 23 13 14 22 27 13 17 -12 -9 -24 -8 -25 33 -20 23 2 58 7 77 11 47 8 198
13 231 7 36 -7 32 -29 -8 -43 -18 -7 -33 -16 -33 -20 0 -5 -10 -11 -22 -14
-12 -4 -20 -9 -16 -12 3 -3 34 8 69 25 35 16 73 31 84 31 13 1 10 4 -10 9
l-30 8 35 1 c56 2 343 79 300 81 -8 0 -55 -11 -105 -24 -49 -13 -106 -27 -125
-30 -35 -5 -35 -5 -10 9 14 8 33 14 42 15 9 0 20 4 23 10 3 6 -1 7 -9 4 -27
-11 -18 2 31 40 25 20 41 36 35 36 -6 0 -17 -7 -26 -15 -8 -8 -19 -15 -24 -15
-5 0 -17 -10 -28 -21 -10 -12 -34 -28 -53 -36 -29 -12 -35 -12 -50 0 -32 29
-157 79 -216 87 -138 20 -159 19 -185 -1z"/>
<path d="M5538 5593 c6 -2 12 -11 12 -19 0 -8 5 -14 10 -14 6 0 10 -4 10 -10
0 -19 -107 -39 -239 -45 -127 -5 -174 -11 -195 -23 -6 -3 -33 -4 -60 -3 -35 1
-57 -3 -71 -14 -20 -16 -19 -16 5 -10 14 4 36 8 50 10 15 1 17 0 5 -2 -11 -3
-25 -9 -31 -14 -22 -18 -66 -6 -77 21 l-11 25 -4 -24 c-2 -13 2 -27 10 -32 9
-6 3 -10 -19 -15 -18 -4 -33 -10 -33 -15 0 -14 51 -23 59 -10 4 6 56 15 122
20 63 5 148 17 189 26 41 8 93 18 115 21 38 5 99 20 173 43 31 9 36 7 62 -19
16 -16 32 -25 35 -20 3 6 2 10 -3 10 -5 0 -15 13 -22 30 -7 16 -21 32 -31 35
-11 4 -17 11 -14 16 4 5 -2 9 -12 9 -14 0 -15 2 -5 9 11 7 10 10 -3 15 -9 3
-22 6 -28 5 -8 0 -8 -2 1 -6z"/>
<path d="M0 3029 l0 -310 55 6 c31 4 70 8 87 10 32 2 48 18 29 29 -5 3 -7 16
-4 29 4 18 3 19 -6 7 -8 -12 -11 -7 -11 21 0 24 6 41 19 50 13 10 21 31 25 68
7 68 -3 60 -15 -11 l-8 -53 3 66 c4 75 15 105 27 73 7 -17 8 -17 8 4 1 12 -3
22 -9 22 -15 0 -12 51 4 69 14 15 26 89 30 171 0 19 8 40 16 47 12 10 -12 12
-117 13 l-133 0 0 -311z"/>
<path d="M2515 345 c22 -7 85 -26 140 -40 55 -15 145 -40 200 -55 252 -72 661
-170 704 -170 45 0 9 17 -61 29 -40 7 -89 18 -108 24 -19 6 -39 11 -45 12 -5
1 -21 4 -35 8 -14 3 -74 18 -135 32 -154 37 -272 67 -485 125 -173 47 -265 65
-175 35z"/>
</g>
</svg>
